<?xml version="1.0" encoding="UTF-8"?>
<svg width="15px" height="14px" viewBox="0 0 15 14" version="1.1" xmlns="http://www.w3.org/2000/svg" xmlns:xlink="http://www.w3.org/1999/xlink">
    <!-- Generator: Sketch 42 (36781) - http://www.bohemiancoding.com/sketch -->
    <title>phone-receiver (2)</title>
    <desc>Created with Sketch.</desc>
    <defs></defs>
    <g id="Page-1" stroke="none" stroke-width="1" fill="none" fill-rule="evenodd">
        <g id="Desktop-Landscape" transform="translate(-638.000000, -413.000000)" fill-rule="nonzero" fill="#423875">
            <g id="phone-receiver-(2)" transform="translate(638.526051, 413.000000)">
                <g id="Capa_1">
                    <path d="M13.5439802,10.6913601 C13.5726934,10.9113387 13.5056568,11.1026041 13.3431515,11.2651562 L11.4352793,13.1586132 C11.3492099,13.2542459 11.2368649,13.335604 11.0981975,13.4024766 C10.9595301,13.4694429 10.8232769,13.5124776 10.689438,13.5315807 C10.6798748,13.5315807 10.6511147,13.5340419 10.6032749,13.5388235 C10.5555288,13.5435817 10.4933676,13.5460194 10.4168614,13.5460194 C10.2351124,13.5460194 9.94101846,13.5149388 9.53457952,13.4527541 C9.12814057,13.3905694 8.63087401,13.2375337 8.04277982,12.9937172 C7.454545,12.7498538 6.7875304,12.3840119 6.04161884,11.896332 C5.29570727,11.4086756 4.50193247,10.7391999 3.66036477,9.88804545 C2.99093592,9.22817987 2.4362663,8.59700409 1.99635591,7.99454157 C1.55644552,7.39203216 1.20260456,6.83497172 0.934833016,6.32333681 C0.667038036,5.8117019 0.46620938,5.34788334 0.332323609,4.93188112 C0.198437839,4.51587891 0.10758678,4.15725631 0.0597704333,3.85601333 C0.0119540867,3.55477034 -0.00717245199,3.31807943 0.00239081733,3.14594058 C0.0119540867,2.97380173 0.0167357213,2.87816904 0.0167357213,2.8590425 C0.03586226,2.72515673 0.0788969719,2.58888014 0.145839857,2.45021273 C0.212782743,2.31154533 0.294070532,2.19917691 0.389703225,2.11310749 L2.29757546,0.20523526 C2.43146123,0.0713494898 2.58447354,0.00440660449 2.75661238,0.00440660449 C2.88093488,0.00440660449 2.99091248,0.0402688645 3.08654518,0.111993384 C3.18217787,0.183717904 3.26346566,0.272178146 3.33040854,0.377374108 L4.86531327,3.28938962 C4.95138269,3.44240193 4.97529087,3.60975914 4.93703779,3.79146126 C4.89878471,3.97316337 4.81749692,4.12617568 4.69317442,4.25049819 L3.99027413,4.95339848 C3.97114759,4.97252502 3.95441187,5.00360564 3.94006696,5.04664036 C3.92572206,5.08967507 3.91854961,5.12553733 3.91854961,5.15422714 C3.95680268,5.35505579 4.04287211,5.58457426 4.17675788,5.84278253 C4.29151711,6.07230099 4.46843759,6.35202662 4.70751933,6.68195941 C4.94660106,7.0118922 5.28609712,7.39200872 5.72600751,7.82235584 C6.15635463,8.26231311 6.5388854,8.60415311 6.87359983,8.84806335 C7.20824394,9.09183296 7.48806332,9.27121458 7.71280015,9.38597381 C7.93753698,9.50073305 8.10967583,9.57006675 8.22919326,9.5939046 L8.40845768,9.6297903 C8.42758422,9.6297903 8.45873516,9.62259441 8.50172299,9.60827295 C8.5447577,9.5939046 8.57583833,9.57719232 8.59498831,9.55804234 L9.4126244,8.72603791 C9.584857,8.57304904 9.7855919,8.49654289 10.0151338,8.49654289 C10.1777563,8.49654289 10.3067901,8.52520926 10.4024228,8.58261231 L10.4167442,8.58261231 L13.1852873,10.2179314 C13.3861862,10.3423476 13.5057037,10.5000947 13.5439802,10.6913601 Z" id="Shape"></path>
                </g>
            </g>
        </g>
    </g>
</svg>