<?xml version="1.0" encoding="UTF-8"?>
<svg width="14px" height="12px" viewBox="0 0 14 12" version="1.1" xmlns="http://www.w3.org/2000/svg" xmlns:xlink="http://www.w3.org/1999/xlink">
    <!-- Generator: Sketch 42 (36781) - http://www.bohemiancoding.com/sketch -->
    <title>envelope (1)</title>
    <desc>Created with Sketch.</desc>
    <defs></defs>
    <g id="Page-1" stroke="none" stroke-width="1" fill="none" fill-rule="evenodd">
        <g id="Desktop-Landscape" transform="translate(-549.000000, -394.000000)" fill-rule="nonzero" fill="#423875">
            <g id="envelope-(1)" transform="translate(549.302436, 394.405818)">
                <g id="Capa_1" transform="translate(0.000000, 0.000000)">
                    <g id="Group">
                        <path d="M1.29698032,3.29432368 C1.46791782,3.4149466 1.98318661,3.77319694 2.8428131,4.36888981 C3.70246601,4.96458269 4.36101908,5.42325088 4.81849874,5.74492081 C4.86876049,5.78018063 4.9755436,5.85682782 5.1389009,5.97496802 C5.30228461,6.09318746 5.43804152,6.18871913 5.54606598,6.26158942 C5.65416969,6.33443331 5.78485552,6.41615157 5.93825555,6.50661216 C6.09160275,6.59699351 6.23615481,6.66497761 6.37188531,6.70998341 C6.50764222,6.75535896 6.6333098,6.77783545 6.74891447,6.77783545 L6.75649467,6.77783545 L6.76410129,6.77783545 C6.87970596,6.77783545 7.00542636,6.75533255 7.14118327,6.70998341 C7.27686095,6.66497761 7.42154507,6.59691427 7.57476021,6.50661216 C7.72805459,6.41604592 7.85874042,6.33440689 7.96684413,6.26158942 C8.07494783,6.18871913 8.2105991,6.09318746 8.37403563,5.97496802 C8.53736651,5.85672217 8.64428168,5.78018063 8.69454343,5.74492081 C9.1569621,5.42325088 10.3334252,4.60630594 12.2235628,3.29416521 C12.5905291,3.03789103 12.8971178,2.72866108 13.1434083,2.36668667 C13.3898837,2.00487074 13.5129893,1.62530604 13.5129893,1.22820387 C13.5129893,0.896365377 13.3935285,0.612305927 13.1547126,0.376051925 C12.9159231,0.1397451 12.633105,0.0216577173 12.3064432,0.0216577173 L1.20646691,0.0216577173 C0.819401245,0.0216577173 0.521528397,0.152343553 0.312901191,0.413715224 C0.104300397,0.675139719 0,1.00190713 0,1.39399105 C0,1.71069555 0.138292448,2.05389113 0.414745286,2.42336651 C0.691171712,2.79286829 0.985346901,3.08321376 1.29698032,3.29432368 Z" id="Shape"></path>
                        <path d="M12.7588254,4.10110006 C11.110092,5.21702715 9.85817032,6.08428667 9.00366773,6.70269373 C8.71712556,6.91375083 8.48467487,7.07850795 8.30615717,7.19656892 C8.12763947,7.31470913 7.89022335,7.43535846 7.59356545,7.5584641 C7.29701319,7.68175462 7.02063959,7.74321499 6.76420693,7.74321499 L6.75652109,7.74321499 L6.74894088,7.74321499 C6.49256105,7.74321499 6.21602898,7.68175462 5.91947672,7.5584641 C5.62292447,7.43535846 5.38534987,7.31470913 5.206885,7.19656892 C5.02847295,7.07850795 4.79594302,6.91375083 4.50942727,6.70269373 C3.83072195,6.20504165 2.58149425,5.33772931 0.761691352,4.10110006 C0.475069952,3.91019521 0.221199247,3.69137303 0,3.44508252 L0,9.43225282 C0,9.76424978 0.118087383,10.0481508 0.354394208,10.2844312 C0.590648209,10.5207908 0.874734072,10.638931 1.20654615,10.638931 L12.3065488,10.638931 C12.6382817,10.638931 12.9223411,10.5207908 13.1586216,10.2844312 C13.3949812,10.0480715 13.5130158,9.76427619 13.5130158,9.43225282 L13.5130158,3.44508252 C13.2968084,3.68627554 13.045526,3.90509772 12.7588254,4.10110006 Z" id="Shape"></path>
                    </g>
                </g>
            </g>
        </g>
    </g>
</svg>