<?xml version="1.0" encoding="UTF-8"?>
<svg width="126px" height="207px" viewBox="0 0 126 207" version="1.1" xmlns="http://www.w3.org/2000/svg" xmlns:xlink="http://www.w3.org/1999/xlink">
    <!-- Generator: Sketch 42 (36781) - http://www.bohemiancoding.com/sketch -->
    <title>Group 6</title>
    <desc>Created with Sketch.</desc>
    <defs></defs>
    <g id="Page-1" stroke="none" stroke-width="1" fill="none" fill-rule="evenodd">
        <g id="Desktop-Landscape-Copy" transform="translate(-945.000000, -418.000000)">
            <g id="Group-6" transform="translate(947.000000, 420.000000)">
                <path d="M0.5,202.5 L62.8489015,0.105873682" id="Line" stroke="#316638" stroke-width="3" stroke-linecap="square"></path>
                <g id="champagne" transform="translate(87.654712, 144.268302) rotate(-37.000000) translate(-87.654712, -144.268302) translate(54.654712, 108.268302)" fill-rule="nonzero">
                    <g id="Layer_1" transform="translate(0.000000, 0.000000)">
                        <g id="Group" transform="translate(1.114264, 31.895821)" fill="#CCCCCC">
                            <path d="M11.5255339,2.55277993 C11.5255339,3.92026101 10.4168408,5.02881489 9.04894185,5.02881489 L2.57994012,5.02881489 C1.21218047,5.02881489 0.103348031,3.92040029 0.103348031,2.55277993 L0.103348031,2.55277993 C0.103348031,1.18543813 1.21204119,0.0770235323 2.57994012,0.0770235323 L9.04894185,0.0770235323 C10.4168408,0.0771628153 11.5255339,1.18571669 11.5255339,2.55277993 L11.5255339,2.55277993 Z" id="Shape"></path>
                            <path d="M56.6689844,2.55277993 C56.6689844,3.92026101 55.5602913,5.02881489 54.1923923,5.02881489 L47.7232513,5.02881489 C46.3554917,5.02881489 45.2467985,3.92040029 45.2467985,2.55277993 L45.2467985,2.55277993 C45.2467985,1.18543813 46.3553524,0.0770235323 47.7232513,0.0770235323 L54.1923923,0.0770235323 C55.560152,0.0771628153 56.6689844,1.18571669 56.6689844,2.55277993 L56.6689844,2.55277993 Z" id="Shape"></path>
                        </g>
                        <path d="M24.1955568,24.4184097 C25.2786219,24.4184097 26.1576373,25.3113534 26.1577766,26.4129431 L26.1601444,31.7974869 C26.1601444,32.8997731 25.2819647,33.7920204 24.1987603,33.7917418 L18.9011291,33.7902097 C17.818064,33.7897918 16.9387701,32.8964303 16.9379344,31.7944227 L16.9358451,26.409461 C16.9357059,25.3084285 17.8144427,24.4159026 18.8980649,24.4159026 L24.1955568,24.4184097 Z" id="Shape" fill="#D4EBE9"></path>
                        <path d="M49.0380834,21.9661921 L60.7276928,10.2614009 C62.2226179,8.76466513 62.1879364,6.2948979 60.6509478,4.75609866 C59.1140986,3.21702084 56.6473956,3.18247864 55.1526098,4.67921441 L43.4632789,16.3841449 C39.3595821,14.483349 34.3909375,15.1707109 31.0838005,18.4821657 L9.5681891,40.0254944 C8.63972822,40.9550696 8.65908857,42.4814726 9.61108828,43.4348652 L22.0224625,55.8623962 C22.9746015,56.8157888 24.4989153,56.8352884 25.4273762,55.9054347 L46.9424305,34.3621059 C50.2501246,31.0502333 50.9366508,26.0750424 49.0380834,21.9661921 Z" id="Shape" fill="#316638"></path>
                        <path d="M49.4148441,10.4243621 L43.4631396,16.3841449 C41.9870178,15.7002651 40.3503025,15.3386863 38.7298834,15.3386863 C35.8234638,15.3386863 33.1081405,16.4549007 31.0838005,18.4820264 L9.56846767,40.0253552 C9.10925142,40.4849893 8.86063116,41.1263877 8.88625924,41.7850573 C8.9088231,42.363082 9.27151618,42.8729973 9.81040234,43.0835933 C9.98255621,43.1510063 10.1622314,43.1837378 10.3402351,43.1837378 C10.7196422,43.1837378 11.0920851,43.0352621 11.3702333,42.756696 L31.0836613,23.0173614 C33.1081405,20.990375 35.8234638,19.8740213 38.7298834,19.8740213 C40.03413,19.8740213 41.3789079,20.1144239 42.618945,20.5694616 C42.782324,20.6294926 42.9518315,20.6584635 43.1199462,20.6584635 C43.4996318,20.6584635 43.8720747,20.5098485 44.1500837,20.2314216 L51.6809795,12.6903582 L49.4148441,10.4243621 Z" id="Shape" fill="#000000" opacity="0.1"></path>
                        <polygon id="Shape" fill="#FFE060" points="17.505095 32.0781423 33.3642821 47.9579433 44.6549848 36.6524766 28.7960763 20.7725363"></polygon>
                        <path d="M19.1549029,31.2091553 C19.921099,31.9750728 19.9106527,33.227924 19.1316426,34.0069341 L15.3250365,37.815908 C14.5458871,38.5956145 13.2934538,38.6053644 12.5279541,37.8393075 L8.78277193,34.0930111 C8.01713294,33.3269542 8.02757917,32.0739638 8.80617148,31.2943965 L12.6131954,27.4852834 C13.3917877,26.7064125 14.6444995,26.6966627 15.4108349,27.4627195 L19.1549029,31.2091553 Z" id="Shape" fill="#ACEBE9"></path>
                        <path d="M14.4985309,70.2213655 C13.8402791,70.2213655 13.2735364,69.7549065 13.1465102,69.108076 L6.16940387,33.6193094 C6.08945539,33.2145528 6.1954498,32.7951715 6.45716267,32.4763526 C6.71915411,32.1576729 7.10928596,31.9729836 7.52142453,31.9729836 L51.4792976,31.9729836 C51.8914362,31.9729836 52.2822645,32.1576729 52.5436988,32.4763526 C52.8056902,32.7948929 52.9109882,33.2144135 52.8314576,33.6193094 L45.8539334,69.108076 C45.7269072,69.7550458 45.1603037,70.2213655 44.502052,70.2213655 L14.4985309,70.2213655 Z" id="Shape" fill="#B3B3B3"></path>
                        <path d="M8.02380429,42.7909596 L7.8077905,41.9527541 C7.83536285,42.2361952 7.90694138,42.517547 8.02380429,42.7909596 Z" id="Shape" fill="#000000"></path>
                        <polygon id="Shape" fill="#CCCCCC" points="46.7474342 64.5641054 48.0495915 57.9410566 10.9511306 57.9410566 12.2535665 64.5641054"></polygon>
                        <path d="M19.2181374,69.108076 L12.241031,33.6193094 C12.1610826,33.2145528 12.267077,32.7951715 12.5287898,32.4763526 C12.7907813,32.1576729 13.1809131,31.9729836 13.5930517,31.9729836 L7.52128525,31.9729836 C7.10928596,31.9729836 6.71887554,32.1576729 6.45702339,32.4763526 C6.19531052,32.7948929 6.08959467,33.2144135 6.16926458,33.6193094 L13.1466495,69.108076 C13.2736756,69.7550458 13.8404184,70.2213655 14.4986701,70.2213655 L20.5702973,70.2213655 C19.9120456,70.2213655 19.3453028,69.7549065 19.2181374,69.108076 Z" id="Shape" fill="#000000" opacity="0.1"></path>
                        <path d="M56.3519762,14.6426888 C55.8279933,15.1672288 54.9411781,15.1294831 54.3709532,14.5585619 L50.8610201,11.0440324 C50.290656,10.4729719 50.252771,9.58518164 50.7768931,9.06050235 L58.36587,1.46163643 C58.8898528,0.937096429 59.7766681,0.974424289 60.3468929,1.54562412 L63.8571046,5.06015358 C64.4271902,5.63121412 64.4646573,6.51928291 63.940953,7.04382292 L56.3519762,14.6426888 Z" id="Shape" fill="#FFE060"></path>
                        <g id="Group" transform="translate(43.595598, 22.703139)" fill="#FFFFFF">
                            <path d="M4.2846255,3.22635281 C3.33805782,2.09133515 3.14487222,1.47236123 3.27788754,0.000557132241 C2.14314845,0.947264092 1.52403524,1.1404497 0.0520918645,1.00743437 C0.998938108,2.14203418 1.192263,2.76128667 1.05896911,4.23309077 C2.1937082,3.2863838 2.81268212,3.09305892 4.2846255,3.22635281 Z" id="Shape"></path>
                            <ellipse id="Oval" cx="2.5004095" cy="6.11745129" rx="1.05423348" ry="1.05423348"></ellipse>
                        </g>
                        <path d="M53.0533355,17.9456473 C53.2664386,18.1586111 53.5455618,18.2647448 53.8246851,18.2647448 C54.1042262,18.2647448 54.3839065,18.158054 54.5970096,17.9445331 L64.7135561,7.81503322 C65.6610988,6.86609773 65.6236317,5.28426002 64.6297077,4.28880399 L61.1193568,0.774413815 C60.6279661,0.28218748 59.9575968,0 59.2795668,0 C58.6370541,0 58.0382762,0.245277469 57.5935454,0.690286846 L43.2115944,15.0911803 C38.7514723,13.3547384 33.653573,14.3638441 30.3113367,17.7106768 L24.6643836,23.3648726 C24.5117293,23.3407767 24.355593,23.3268484 24.1961139,23.3268484 L18.8982042,23.3243413 C18.0792198,23.3243413 17.310238,23.647478 16.7327704,24.2341382 C16.161292,24.8145307 15.8460945,25.5846268 15.8445624,26.4031933 C15.3240616,26.0155685 14.695895,25.8028833 14.0323505,25.8028833 C13.2062626,25.8028833 12.4280882,26.1262986 11.8410101,26.713516 L8.03356835,30.5229077 C7.92060978,30.6360055 7.81907243,30.7563461 7.72756346,30.8814223 L3.69420461,30.8814223 C1.7266921,30.8814223 0.126051169,32.4816453 0.126051169,34.4486007 C0.126051169,35.5010235 0.584431721,36.4481483 1.31176786,37.1015252 C0.526072118,38.2255395 0.062538094,39.5902349 0.062538094,41.0625961 C0.062538094,44.8880054 3.17565377,48.000146 7.00231657,48.000146 C7.29731809,48.000146 7.58786255,47.9802286 7.87311426,47.9438757 L12.0754235,69.3181148 C12.3024549,70.4738857 13.3214497,71.3126482 14.4985309,71.3126482 L44.5017734,71.3126482 C45.6787153,71.3126482 46.6977102,70.4737464 46.9246023,69.3183934 L51.1273293,47.944015 C51.4128596,47.9803679 51.7034041,48.0002853 51.9985449,48.0002853 C55.8252077,48.0002853 58.9384626,44.8881446 58.9384626,41.0627354 C58.9384626,39.5903742 58.4749286,38.2256787 57.6890936,37.1016644 C58.4164297,36.4481483 58.8748103,35.5010235 58.8748103,34.44874 C58.8748103,32.4816453 57.2741693,30.8815615 55.3066568,30.8815615 L50.4210249,30.8815615 C51.42637,28.1446494 51.4313842,25.0521476 50.3300731,22.2170409 L51.3297076,21.215735 C51.7556352,20.789111 51.7550781,20.0979885 51.3284541,19.6720609 C50.9019693,19.2462725 50.2108468,19.2464118 49.7847799,19.6733144 L47.7281262,21.7331716 L48.0470844,22.423737 C49.3170674,25.1722096 49.2716611,28.2808682 48.0596199,30.881283 L40.4342902,30.881283 L30.3389147,20.772397 L31.8562644,19.2530974 C34.7325989,16.3727237 39.2130563,15.6182274 43.0046198,17.3741689 L43.6968566,17.6946592 L49.8286541,11.5547834 L53.8614558,15.5917636 L53.0524998,16.4016946 C52.6262936,16.8285972 52.6267115,17.5197197 53.0533355,17.9456473 Z M18.2884229,25.7656947 C18.4523591,25.5992515 18.6686657,25.5076032 18.8977863,25.5076032 L22.5229065,25.5094139 L18.7635175,29.2736779 L18.0279636,28.5375669 L18.0272672,26.4096003 C18.0274065,26.1652978 18.1200297,25.9367343 18.2884229,25.7656947 Z M13.3851021,28.2569116 C13.5596238,28.0822506 13.7895801,27.986006 14.0323505,27.986006 C14.2631425,27.986006 14.4786134,28.0741722 14.6386496,28.2342084 L17.2840528,30.8814223 L10.7619842,30.8814223 L13.3851021,28.2569116 Z M3.69420461,33.0644057 L5.06990339,33.0644057 C5.04051466,33.316508 5.04775738,33.5741817 5.09817785,33.8297661 L5.49193106,35.8330743 L3.69420461,35.8330743 C2.93051559,35.8330743 2.30917385,35.2118719 2.30917385,34.4486007 C2.30931314,33.6854688 2.93065487,33.0644057 3.69420461,33.0644057 Z M7.00245585,45.8173019 C4.37961654,45.8173019 2.24580006,43.6844604 2.24580006,41.0627354 C2.24580006,39.8961005 2.67047411,38.8286351 3.37065006,38.0007366 C3.47734088,38.0103471 3.58514597,38.0160577 3.69434389,38.0160577 L5.92148002,38.0160577 L7.4509473,45.7951559 C7.30316798,45.8093628 7.15385654,45.8173019 7.00245585,45.8173019 Z M44.502052,69.1299434 L14.4985309,69.1299434 C14.3620335,69.1299434 14.2439214,69.032306 14.2174577,68.8973407 L13.5800984,65.6556668 L45.4199274,65.6556668 L44.7824288,68.8976193 C44.7563829,69.0321667 44.6382708,69.1299434 44.502052,69.1299434 Z M53.9021264,33.8301839 C53.9526862,33.5743209 53.9599289,33.3166473 53.9304009,33.0645449 L55.3063783,33.0645449 C56.0700673,33.0645449 56.691409,33.6856081 56.691409,34.44874 C56.691409,35.2120112 56.069928,35.8332136 55.3063783,35.8332136 L53.5082339,35.8332136 L53.9021264,33.8301839 Z M55.3066568,38.016197 C55.4158547,38.016197 55.5236598,38.0104864 55.6304899,38.0008759 C56.3306659,38.8286351 56.7553399,39.8962398 56.7553399,41.0628747 C56.7553399,43.6845997 54.6215234,45.8174412 51.9985449,45.8174412 C51.8471442,45.8174412 51.6976934,45.8095021 51.5499141,45.7954345 L53.0793814,38.0163363 L55.3067961,38.0163363 L55.3067961,38.016197 L55.3066568,38.016197 Z M51.4791583,33.0644057 C51.6575799,33.0644057 51.7947737,33.2340524 51.7603708,33.4084348 L47.1516336,56.8494953 L25.0189983,56.8494953 C24.4160419,56.8494953 23.9274369,57.3381003 23.9274369,57.9410566 C23.9274369,58.544013 24.4160419,59.032618 25.0189983,59.032618 L46.7225025,59.032618 L45.8496156,63.4726834 L13.1512458,63.4726834 L12.2783589,59.032618 L19.6340366,59.032618 C20.2369929,59.032618 20.7255979,58.544013 20.7255979,57.9410566 C20.7255979,57.3381003 20.2369929,56.8494953 19.6340366,56.8494953 L11.8490885,56.8494953 L7.24021203,33.4078777 C7.20566984,33.2339131 7.34342078,33.0645449 7.52128525,33.0645449 L51.4791583,33.0645449 L51.4791583,33.0644057 Z M37.3488919,30.8814223 L20.2893634,30.8814223 C20.2830956,30.8722296 20.2779422,30.8620619 20.2716744,30.8528692 L28.7962156,22.3173247 L37.3488919,30.8814223 Z M59.1381945,2.2331253 C59.2592315,2.11139191 59.4774881,2.21961485 59.5747076,2.31697371 L63.08478,5.83150316 C63.2347879,5.98178959 63.2528947,6.18834636 63.1687677,6.27261262 L62.2195537,7.22294093 L58.1868912,3.18554287 L59.1381945,2.2331253 Z M51.633484,10.2726828 C51.4834761,10.1225357 51.46523,9.91611819 51.549357,9.83185194 L56.6444706,4.73005272 L60.6769938,8.76759007 L55.5792338,13.8718964 C55.4581968,13.9925155 55.2403581,13.8844319 55.1435564,13.7873516 L51.633484,10.2726828 Z" id="Shape" fill="#000000"></path>
                    </g>
                </g>
                <text id="REFRESH-&amp;-RECHARGE" transform="translate(52.302783, 105.422615) rotate(-72.000000) translate(-52.302783, -105.422615) " font-family="Phosphate-Inline, Phosphate" font-size="14" font-weight="normal" letter-spacing="0.770000041" fill="#4A4A4A">
                    <tspan x="-19.6972169" y="109.922615">REFRESH &amp; RECHARGE</tspan>
                </text>
                <g id="men-dancing" transform="translate(98.323165, 21.959340)" fill-rule="nonzero" fill="#FF4A60">
                    <g id="Capa_1" transform="translate(0.000000, -0.000000)">
                        <path d="M6.4126111,5.8322746 C7.71884166,5.8322746 8.78148741,4.76956572 8.78148741,3.46339829 C8.78148741,2.15723086 7.71884166,1.09452198 6.4126111,1.09452198 C5.10638055,1.09452198 4.04367167,2.15716773 4.04367167,3.46333516 C4.04367167,4.76950259 5.10638055,5.8322746 6.4126111,5.8322746 Z M6.4126111,2.23070396 C7.09236353,2.23070396 7.64530543,2.78370898 7.64530543,3.46333516 C7.64530543,4.1430876 7.09230041,4.69602949 6.4126111,4.69602949 C5.73292179,4.69602949 5.17985365,4.14302447 5.17985365,3.46333516 C5.17985365,2.78370898 5.73292179,2.23070396 6.4126111,2.23070396 Z M8.74525583,15.399495 C8.78666335,15.5457468 8.76779011,15.70254 8.69273898,15.8347789 L6.24300438,20.1515761 L6.80219528,20.1515761 C7.11597087,20.1515761 7.37028627,20.4058915 7.37028627,20.7196671 C7.37028627,21.0334427 7.11597087,21.2877581 6.80219528,21.2877581 L5.27062197,21.2877581 C5.26935955,21.2877581 5.26809712,21.2880106 5.2668347,21.2880106 C5.25989136,21.2880106 5.25294803,21.2869375 5.24606781,21.286685 C5.23192866,21.2861801 5.21778951,21.2855488 5.20390284,21.2840339 C5.19493963,21.283024 5.18597641,21.2813828 5.17707632,21.2799942 C5.16375774,21.2778481 5.15050229,21.2753863 5.13749931,21.2722934 C5.1294198,21.2703998 5.12146652,21.2683799 5.11345013,21.2661075 C5.0972911,21.2615628 5.08151079,21.2562606 5.06598297,21.2503272 C5.06118576,21.2484967 5.0562623,21.2469818 5.05152821,21.245025 C5.03050884,21.2363774 5.01018381,21.2265305 4.99055311,21.2154843 C4.98941693,21.2148531 4.98821763,21.2144744 4.98708144,21.2138431 C4.9819055,21.2109396 4.97729766,21.2074679 4.97224796,21.2044381 C4.96271665,21.1985678 4.95312223,21.1927607 4.94396965,21.1864485 C4.93626886,21.1811463 4.92900992,21.1754023 4.92168786,21.1697845 C4.91461828,21.1643561 4.90754871,21.1590539 4.90079473,21.1533099 C4.89258898,21.1464297 4.88488819,21.1391076 4.8771874,21.1318487 C4.87169585,21.1266096 4.86620431,21.1214968 4.86090212,21.1161315 C4.85320133,21.1082413 4.84594239,21.1000987 4.8388097,21.0918298 C4.83388624,21.086212 4.82896279,21.0805942 4.82429181,21.074724 C4.81779033,21.0666445 4.81173069,21.0582493 4.80567105,21.0498542 C4.80081072,21.0431002 4.79595039,21.0362831 4.79140566,21.0292767 C4.78641908,21.0215759 4.78181123,21.0137489 4.77720338,21.0059218 C4.77227993,20.9975267 4.76748272,20.9891316 4.76300111,20.980484 C4.75946632,20.9736038 4.75618402,20.9665973 4.75296483,20.9595909 C4.74829386,20.9496177 4.74381226,20.9396446 4.7397725,20.9293558 C4.73724765,20.9230437 4.73503841,20.9166684 4.73282917,20.9103563 C4.72891565,20.8993732 4.7251915,20.888327 4.72190919,20.8770914 C4.72001556,20.8705899 4.71850065,20.8639622 4.7168595,20.8573976 C4.71414528,20.8464145 4.71143107,20.8353683 4.70934807,20.8241327 C4.70789628,20.8162426 4.70682322,20.8082262 4.70568704,20.8002729 C4.70423525,20.7902997 4.70278346,20.7803897 4.70189977,20.7702272 C4.70095295,20.7600016 4.70070046,20.7497759 4.70032174,20.7394872 C4.70006925,20.7329226 4.6993118,20.7264211 4.6993118,20.7197933 C4.6993118,20.7180891 4.69956428,20.7164479 4.69956428,20.7147436 C4.6996274,20.7035081 4.7005111,20.6922725 4.70126855,20.6810369 C4.70177352,20.673273 4.70202601,20.6655091 4.70284659,20.6578714 C4.70385652,20.6484664 4.70562392,20.6391244 4.70713883,20.6297825 C4.70865374,20.6203143 4.70991616,20.610783 4.71187292,20.6014411 C4.71319847,20.5953183 4.71502898,20.5893218 4.71654389,20.583199 C4.71963683,20.5707641 4.72266665,20.5582661 4.72658016,20.54621 C4.72765323,20.5428646 4.72910501,20.5395823 4.7302412,20.5362368 C4.73529089,20.5215296 4.7406562,20.5069486 4.74684208,20.4928094 C4.74791514,20.4902846 4.7493038,20.4878229 4.75043999,20.4853611 C4.75719396,20.4705276 4.76438978,20.4559466 4.77227993,20.4418706 C4.77272178,20.4411132 4.77297426,20.4403557 4.77341611,20.4395982 L7.42053076,15.7750662 L4.16518002,13.9855796 C3.89281195,13.8358561 3.79213361,13.4956327 3.93712305,13.2220653 C3.93882732,13.1805316 3.9446976,13.1386191 3.9559963,13.0968328 L5.01826333,9.1675368 C5.10013155,8.86468118 5.41201351,8.6856694 5.71493225,8.76734826 C6.01778787,8.84927961 6.19698901,9.16116156 6.11505767,9.46401718 L5.10366634,13.2050226 L8.47238279,15.0568099 C8.60550545,15.129778 8.70378519,15.2533062 8.74525583,15.399495 Z M13.4175517,0.845887485 L11.845139,4.5526812 C11.2313483,5.99960895 10.130956,7.92310193 7.6725738,7.92310193 L6.90116936,7.92310193 L5.85360957,7.92310193 C4.45844122,7.92310193 3.52330032,8.72398398 2.72671051,10.6012091 L1.15429777,14.3078766 C1.06251952,14.5243192 0.852262729,14.6542227 0.63108597,14.6542227 C0.557107898,14.6542227 0.481867403,14.6397048 0.409467362,14.6089648 C0.120624654,14.4865096 -0.0142022748,14.1529771 0.108316016,13.8641344 L1.68072876,10.1574038 C2.294772,8.71041292 3.39529049,6.78691995 5.85354645,6.78691995 L6.90116936,6.78691995 L7.67232132,6.78691995 C9.06780527,6.78691995 10.002883,5.98603789 10.7992204,4.10893902 L12.3716331,0.4021453 C12.4940883,0.113302592 12.8277471,-0.021398094 13.1164635,0.100993954 C13.4052431,0.223512244 13.5401332,0.556981656 13.4175517,0.845887485 Z M18.1036081,5.8322746 C19.4097755,5.8322746 20.4724213,4.76956572 20.4724213,3.46339829 C20.4724213,2.15723086 19.4097755,1.09452198 18.1036081,1.09452198 C16.7973775,1.09452198 15.7346687,2.15716773 15.7346687,3.46333516 C15.7346687,4.76950259 16.7973775,5.8322746 18.1036081,5.8322746 Z M18.1036081,2.23070396 C18.7832974,2.23070396 19.3362393,2.78370898 19.3362393,3.46333516 C19.3362393,4.1430876 18.7832974,4.69602949 18.1036081,4.69602949 C17.4238557,4.69602949 16.8708506,4.14302447 16.8708506,3.46333516 C16.8708506,2.78370898 17.4238557,2.23070396 18.1036081,2.23070396 Z M20.8275413,13.2216866 C20.9725938,13.4953171 20.8719155,13.8356036 20.5995474,13.985264 L17.3440704,15.7747506 L19.9911851,20.4392826 C19.9916269,20.4400401 19.9919425,20.4407975 19.9923213,20.441555 C20.0002745,20.4557573 20.0074704,20.4703383 20.0142243,20.4851718 C20.0153605,20.4876335 20.0166861,20.4900321 20.0177591,20.4924938 C20.023945,20.5066961 20.0293734,20.5212771 20.03436,20.5360475 C20.0354962,20.5393929 20.0368849,20.5426121 20.0379579,20.5459575 C20.0418714,20.5580768 20.0449012,20.5705117 20.0479942,20.5829465 C20.0495091,20.5890693 20.0514027,20.5950658 20.0526652,20.6011886 C20.0546219,20.6104674 20.0558843,20.6200618 20.0573992,20.62953 C20.0589142,20.6388719 20.0606816,20.6482139 20.0616915,20.6576189 C20.0625121,20.6652566 20.0627014,20.6730836 20.0632695,20.6807844 C20.064027,20.69202 20.0649107,20.7032556 20.0649738,20.7144912 C20.0649738,20.7161954 20.0652263,20.7178366 20.0652263,20.7195409 C20.0652263,20.7261686 20.0644688,20.7326701 20.0642163,20.7392347 C20.0638376,20.7495234 20.0635851,20.7597491 20.0626383,20.7699747 C20.0617546,20.7801372 20.0602397,20.7900473 20.058851,20.8000204 C20.0577149,20.8079737 20.0567049,20.8159901 20.05519,20.8238802 C20.053107,20.8351158 20.0504559,20.846162 20.0476786,20.8571451 C20.0460374,20.8637097 20.0445225,20.8703375 20.0426289,20.8768389 C20.0394097,20.8881376 20.0356224,20.8991839 20.0317089,20.9101669 C20.0294365,20.9165422 20.0272273,20.9228543 20.0247656,20.9291033 C20.0206627,20.9393921 20.0161811,20.9494283 20.0115101,20.9594015 C20.0082278,20.966408 20.0050086,20.9733513 20.0014738,20.9802315 C19.9969922,20.9888791 19.992195,20.9973374 19.9872716,21.0056694 C19.9826637,21.0135595 19.9780559,21.0213865 19.9730693,21.0290242 C19.9685246,21.0360307 19.9636642,21.0428478 19.9588039,21.0496017 C19.9528074,21.0579968 19.9466846,21.066392 19.9401831,21.0744715 C19.9355122,21.0803418 19.9305887,21.0859595 19.9256653,21.0915773 C19.9184694,21.0998462 19.9112736,21.1079889 19.9035728,21.115879 C19.8982706,21.1212443 19.8927791,21.1264202 19.8872876,21.1315962 C19.8795868,21.1388551 19.8718229,21.1461141 19.8636802,21.1530574 C19.8569262,21.1588014 19.8497936,21.1641036 19.8427871,21.169532 C19.8354019,21.1751498 19.8282061,21.1808939 19.8205053,21.186196 C19.8113527,21.1925713 19.8017583,21.1983153 19.792227,21.2041856 C19.7871773,21.2072154 19.7825695,21.2106871 19.7773935,21.2135907 C19.7762573,21.2142219 19.775058,21.2146637 19.7739218,21.2152318 C19.754228,21.226278 19.7338399,21.2361881 19.7128205,21.2448357 C19.7082127,21.2467293 19.7035417,21.248118 19.6989338,21.2499485 C19.6831535,21.255945 19.6671207,21.2613103 19.6506461,21.2659181 C19.6428822,21.2680643 19.6351183,21.270021 19.6273544,21.2719147 C19.6139727,21.2750707 19.6004016,21.2775956 19.5866412,21.2798048 C19.5779936,21.2811935 19.5694091,21.2827715 19.5607615,21.2837815 C19.5466223,21.2853595 19.5321676,21.2859907 19.5177128,21.2864957 C19.5109588,21.2867482 19.504268,21.2878212 19.497514,21.2878212 C19.4962516,21.2878212 19.4949892,21.2875687 19.4937267,21.2875687 L17.9622166,21.2875687 C17.648441,21.2875687 17.3941256,21.0332533 17.3941256,20.7194777 C17.3941256,20.4057021 17.648441,20.1513867 17.9622166,20.1513867 L18.5212812,20.1513867 L16.0715466,15.8345895 C15.9965586,15.7023506 15.9776222,15.5456206 16.0190298,15.3993056 C16.0604373,15.2531169 16.158717,15.1295886 16.2919659,15.0563049 L19.6608086,13.2045176 L18.6493542,9.46351221 C18.5674859,9.16065659 18.746624,8.84877464 19.0494796,8.76684329 C19.3525877,8.68522755 19.6642803,8.86411309 19.7461485,9.16703183 L20.8085418,13.0963279 C20.8199036,13.1383035 20.8257739,13.180216 20.8275413,13.2216866 Z M25.1467371,0.885464491 L23.5322225,4.59219508 C22.9026514,6.03703984 21.7753064,7.95769236 19.2638393,7.95769236 L17.3963348,7.95769236 C14.8846783,7.95769236 13.7573333,6.03697672 13.1277622,4.59225821 C13.0024666,4.3046148 13.1340112,3.96988296 13.4216546,3.84452422 C13.709298,3.71929172 14.044093,3.85077322 14.1693886,4.13841663 C14.9888283,6.01905029 15.9538255,6.82151037 17.3960823,6.82151037 L19.263713,6.82151037 C20.7060329,6.82151037 21.6710301,6.01905029 22.490533,4.13841663 L24.1049844,0.431749153 C24.2302801,0.144105748 24.565075,0.012561123 24.8526553,0.137793626 C25.1404249,0.26308925 25.2720327,0.597884207 25.1467371,0.885464491 Z M15.3132714,13.3816358 C15.507811,13.6278085 15.4658985,13.9851378 15.2197257,14.1796143 C15.1154495,14.2620506 14.9912269,14.3019432 14.867888,14.3019432 C14.7000487,14.3019432 14.5339137,14.2279651 14.4218104,14.0860686 L13.9343252,13.4691218 C13.7397856,13.222949 13.7816981,12.8656198 14.0278708,12.6711433 C14.2739805,12.4766037 14.6312466,12.5184531 14.8257862,12.7646258 L15.3132714,13.3816358 Z M11.475438,9.60471438 L10.9880791,10.2215981 C10.8759758,10.3634946 10.7097776,10.4375358 10.5419383,10.4375358 C10.4185994,10.4375358 10.29444,10.39758 10.1901637,10.3152068 C9.94399094,10.1206672 9.90207845,9.76346425 10.0965549,9.51722837 L10.5839139,8.90034467 C10.7783272,8.65410879 11.1356565,8.61232254 11.3818292,8.8067359 C11.6280651,9.00133863 11.6699776,9.35854162 11.475438,9.60471438 Z M24.5695566,9.60471438 L24.0821346,10.2215981 C23.9700313,10.3634946 23.8038331,10.4375358 23.6359938,10.4375358 C23.5126549,10.4375358 23.3884955,10.39758 23.2841561,10.3152068 C23.0379833,10.1207304 22.9960708,9.76352737 23.1906104,9.51729149 L23.6780325,8.90040779 C23.8725721,8.65417191 24.229712,8.61225942 24.476011,8.80686215 C24.7221206,9.00133863 24.7640962,9.35854162 24.5695566,9.60471438 Z M0.444057791,5.50404425 C0.249518187,5.25787148 0.291493799,4.90060537 0.537603441,4.70612889 C0.783713082,4.51152616 1.14097919,4.55343865 1.33558192,4.79967454 L1.82300399,5.41655823 C2.01754359,5.662731 1.97556798,6.01999711 1.72945834,6.21447359 C1.62518208,6.29690991 1.50095952,6.33680252 1.37762065,6.33680252 C1.20978133,6.33680252 1.04358315,6.26282445 0.931479861,6.12086482 L0.444057791,5.50404425 Z M2.31036294,17.5521811 C2.50490254,17.7983539 2.46292693,18.15562 2.21675417,18.3501596 C2.11247791,18.4325328 1.98825535,18.4724885 1.8649796,18.4724885 C1.69714027,18.4724885 1.5309421,18.3984473 1.41883881,18.2565508 L0.931479861,17.6396671 C0.736940257,17.3934943 0.77891587,17.0362282 1.02508863,16.8416886 C1.27119827,16.6472122 1.62846439,16.6891246 1.82300399,16.9352974 L2.31036294,17.5521811 Z" id="Shape"></path>
                    </g>
                </g>
                <g id="music-player" transform="translate(49.478269, 181.713237)" fill-rule="nonzero" fill="#FF4A60">
                    <g id="Capa_1">
                        <path d="M11.6578887,2.12245998 C11.61779,2.08737363 11.564882,2.07140842 11.5114171,2.07772025 L5.75651301,2.82233058 C5.66387762,2.83439731 5.59463313,2.91310955 5.59463313,3.00648751 L5.59463313,4.12349582 L5.59463313,4.9054202 L5.59463313,9.7386114 C5.27217286,9.36918369 4.7692685,9.13063363 4.20250327,9.13063363 C3.22843935,9.13063363 2.43890364,9.83254629 2.43890364,10.6981952 C2.43890364,11.5638442 3.22843935,12.2657568 4.20250327,12.2657568 C5.1765672,12.2657568 5.9661029,11.5638442 5.9661029,10.6981952 C5.9661029,10.6365621 5.96109057,10.5760428 5.9532936,10.5160804 C5.96071928,10.496031 5.9661029,10.4750535 5.9661029,10.4524051 L5.9661029,5.06841394 L11.3497228,4.37169926 L11.3497228,7.88200509 C11.0270769,7.51276302 10.5241726,7.27421297 9.95740733,7.27421297 C8.98334341,7.27421297 8.1938077,7.97612562 8.1938077,8.84177458 C8.1938077,9.70742353 8.98334341,10.4093362 9.95740733,10.4093362 C10.9314713,10.4093362 11.721007,9.70742353 11.721007,8.84177458 C11.721007,8.82469551 11.7187793,8.80817336 11.7182223,8.79127994 C11.7185936,8.7862676 11.721007,8.78199783 11.721007,8.7769855 L11.721007,4.16043859 L11.721007,3.37869985 L11.721007,2.26187718 C11.721007,2.20841226 11.6979873,2.15754634 11.6578887,2.12245998 Z" id="Shape" transform="translate(7.079955, 7.171063) rotate(-33.000000) translate(-7.079955, -7.171063) "></path>
                    </g>
                </g>
                <g id="music-player" transform="translate(29.478269, 111.713237)" fill-rule="nonzero" fill="#FF4A60">
                    <g id="Capa_1">
                        <path d="M11.6578887,2.12245998 C11.61779,2.08737363 11.564882,2.07140842 11.5114171,2.07772025 L5.75651301,2.82233058 C5.66387762,2.83439731 5.59463313,2.91310955 5.59463313,3.00648751 L5.59463313,4.12349582 L5.59463313,4.9054202 L5.59463313,9.7386114 C5.27217286,9.36918369 4.7692685,9.13063363 4.20250327,9.13063363 C3.22843935,9.13063363 2.43890364,9.83254629 2.43890364,10.6981952 C2.43890364,11.5638442 3.22843935,12.2657568 4.20250327,12.2657568 C5.1765672,12.2657568 5.9661029,11.5638442 5.9661029,10.6981952 C5.9661029,10.6365621 5.96109057,10.5760428 5.9532936,10.5160804 C5.96071928,10.496031 5.9661029,10.4750535 5.9661029,10.4524051 L5.9661029,5.06841394 L11.3497228,4.37169926 L11.3497228,7.88200509 C11.0270769,7.51276302 10.5241726,7.27421297 9.95740733,7.27421297 C8.98334341,7.27421297 8.1938077,7.97612562 8.1938077,8.84177458 C8.1938077,9.70742353 8.98334341,10.4093362 9.95740733,10.4093362 C10.9314713,10.4093362 11.721007,9.70742353 11.721007,8.84177458 C11.721007,8.82469551 11.7187793,8.80817336 11.7182223,8.79127994 C11.7185936,8.7862676 11.721007,8.78199783 11.721007,8.7769855 L11.721007,4.16043859 L11.721007,3.37869985 L11.721007,2.26187718 C11.721007,2.20841226 11.6979873,2.15754634 11.6578887,2.12245998 Z" id="Shape" transform="translate(7.079955, 7.171063) rotate(-33.000000) translate(-7.079955, -7.171063) "></path>
                    </g>
                </g>
                <g id="music-player" transform="translate(78.478269, 13.713237)" fill-rule="nonzero" fill="#FF4A60">
                    <g id="Capa_1">
                        <path d="M11.6578887,2.12245998 C11.61779,2.08737363 11.564882,2.07140842 11.5114171,2.07772025 L5.75651301,2.82233058 C5.66387762,2.83439731 5.59463313,2.91310955 5.59463313,3.00648751 L5.59463313,4.12349582 L5.59463313,4.9054202 L5.59463313,9.7386114 C5.27217286,9.36918369 4.7692685,9.13063363 4.20250327,9.13063363 C3.22843935,9.13063363 2.43890364,9.83254629 2.43890364,10.6981952 C2.43890364,11.5638442 3.22843935,12.2657568 4.20250327,12.2657568 C5.1765672,12.2657568 5.9661029,11.5638442 5.9661029,10.6981952 C5.9661029,10.6365621 5.96109057,10.5760428 5.9532936,10.5160804 C5.96071928,10.496031 5.9661029,10.4750535 5.9661029,10.4524051 L5.9661029,5.06841394 L11.3497228,4.37169926 L11.3497228,7.88200509 C11.0270769,7.51276302 10.5241726,7.27421297 9.95740733,7.27421297 C8.98334341,7.27421297 8.1938077,7.97612562 8.1938077,8.84177458 C8.1938077,9.70742353 8.98334341,10.4093362 9.95740733,10.4093362 C10.9314713,10.4093362 11.721007,9.70742353 11.721007,8.84177458 C11.721007,8.82469551 11.7187793,8.80817336 11.7182223,8.79127994 C11.7185936,8.7862676 11.721007,8.78199783 11.721007,8.7769855 L11.721007,4.16043859 L11.721007,3.37869985 L11.721007,2.26187718 C11.721007,2.20841226 11.6979873,2.15754634 11.6578887,2.12245998 Z" id="Shape" transform="translate(7.079955, 7.171063) rotate(-33.000000) translate(-7.079955, -7.171063) "></path>
                    </g>
                </g>
            </g>
        </g>
    </g>
</svg>